<?xml version="1.0" standalone="no"?>
<!DOCTYPE svg PUBLIC "-//W3C//DTD SVG 20010904//EN"
 "http://www.w3.org/TR/2001/REC-SVG-20010904/DTD/svg10.dtd">
<svg version="1.0" xmlns="http://www.w3.org/2000/svg"
 width="1280.000000pt" height="1126.000000pt" viewBox="0 0 1280.000000 1126.000000"
 preserveAspectRatio="xMidYMid meet">
<g transform="translate(0.000000,1126.000000) scale(0.100000,-0.100000)"
fill="#000000" stroke="none">
<path d="M5660 10200 c-797 -43 -1519 -179 -2141 -405 -656 -238 -1164 -548
-1574 -959 -389 -391 -617 -791 -700 -1229 -70 -371 -14 -797 150 -1144 241
-509 733 -928 1436 -1224 323 -136 787 -258 1204 -318 367 -53 676 -73 1120
-73 439 0 739 19 1244 78 147 17 217 22 224 15 11 -11 -118 -416 -186 -586
l-32 -80 -120 1 c-135 2 -333 23 -570 60 -257 41 -246 41 -307 4 -29 -18 -56
-38 -60 -44 -12 -18 -58 -159 -58 -177 0 -9 20 -43 44 -76 l43 -59 164 -37
c217 -49 328 -71 506 -102 81 -14 151 -29 156 -34 19 -19 -202 -549 -373 -896
-352 -713 -693 -1113 -1124 -1320 -309 -148 -706 -196 -1076 -131 -257 46
-520 187 -654 352 -190 233 -183 542 18 739 163 160 437 258 838 300 81 8 168
15 193 15 59 0 76 10 125 71 40 50 40 51 40 138 l0 87 -48 46 c-43 44 -53 48
-122 59 -107 16 -659 6 -809 -15 -699 -100 -1134 -374 -1243 -785 -28 -105
-27 -276 1 -386 55 -213 200 -414 424 -588 320 -250 704 -400 1172 -458 127
-16 538 -16 670 -1 388 46 744 150 1055 308 714 362 1301 1005 1765 1934 57
113 126 259 154 325 29 66 59 125 66 131 8 6 76 14 152 18 1042 52 1985 363
2667 878 739 559 1146 1240 1253 2099 25 205 23 572 -5 754 -58 369 -178 687
-373 979 -271 408 -689 769 -1214 1047 -63 33 -117 65 -121 70 -5 8 40 54 104
106 26 21 56 152 42 187 -4 12 -39 42 -76 68 -55 37 -86 50 -151 64 l-83 17
-117 -57 c-65 -31 -161 -81 -213 -111 l-95 -54 -135 40 c-606 179 -1288 295
-2050 349 -192 14 -1004 21 -1200 10z m1300 -499 c642 -53 1075 -130 1508
-268 63 -20 116 -42 119 -49 3 -8 -35 -60 -84 -116 -202 -235 -369 -454 -507
-665 -47 -73 -87 -133 -89 -133 -2 0 -55 7 -118 15 -586 78 -1130 86 -1684 24
-643 -71 -1316 -243 -1873 -480 -176 -75 -177 -76 -214 -137 -19 -31 -38 -65
-41 -75 -4 -9 3 -58 14 -108 24 -105 29 -109 141 -135 l78 -18 177 71 c631
251 1213 390 1898 455 222 21 882 18 1065 -5 185 -23 300 -43 312 -55 5 -5
-11 -53 -38 -113 -185 -416 -386 -997 -789 -2281 -25 -81 -49 -149 -54 -152
-27 -17 -528 -86 -811 -111 -240 -22 -817 -31 -1050 -16 -880 56 -1511 254
-2015 634 -111 84 -298 275 -372 380 -125 178 -220 402 -259 612 -15 80 -19
147 -19 335 1 206 4 248 24 340 119 554 489 1016 1122 1401 639 388 1413 605
2364 663 128 7 1067 -3 1195 -13z m2324 -598 c109 -65 279 -189 393 -287 463
-398 740 -915 809 -1512 22 -187 14 -560 -15 -752 -89 -579 -324 -1039 -737
-1442 -157 -153 -249 -227 -420 -340 -371 -244 -797 -405 -1285 -485 -213 -35
-526 -62 -541 -47 -8 8 28 125 146 464 86 249 159 459 164 466 4 8 90 38 192
67 620 178 1055 412 1360 731 248 260 370 551 370 884 0 329 -131 635 -384
897 -159 165 -322 288 -538 403 -55 29 -98 58 -98 66 0 42 130 339 217 497
107 194 266 427 291 427 8 0 42 -16 76 -37z m-594 -1464 c173 -127 281 -289
321 -484 47 -224 3 -473 -119 -684 -157 -271 -437 -509 -760 -645 -126 -53
-172 -65 -172 -45 0 30 558 1918 572 1936 13 16 69 -11 158 -78z"/>
</g>
</svg>
